<svg xmlns="http://www.w3.org/2000/svg" width="1280" height="542" viewBox="0 0 1280 542" role="img" aria-label="genai-routing architecture"><defs><marker id="arr" markerWidth="9" markerHeight="9" refX="7" refY="4.5" orient="auto"><path d="M1 1 L7 4.5 L1 8" fill="none" stroke="#64748B" stroke-width="1.5"/></marker></defs><rect width="100%" height="100%" fill="#fff"/><path d="M245 206 L257.5 206 L257.5 206 L270 206" fill="none" stroke="#64748B" stroke-width="1.7" marker-end="url(#arr)"/><text x="257.5" y="199" text-anchor="middle" font-family="Arial,sans-serif" font-size="11" fill="#475569" stroke="white" stroke-width="5" paint-order="stroke">request</text><path d="M475 206 L482.5 206 L482.5 206 L490 206" fill="none" stroke="#64748B" stroke-width="1.7" marker-end="url(#arr)"/><text x="482.5" y="199" text-anchor="middle" font-family="Arial,sans-serif" font-size="11" fill="#475569" stroke="white" stroke-width="5" paint-order="stroke">route</text><path d="M695 206 L722.5 206 L722.5 76 L750 76" fill="none" stroke="#64748B" stroke-width="1.7" marker-end="url(#arr)"/><text x="722.5" y="134" text-anchor="middle" font-family="Arial,sans-serif" font-size="11" fill="#475569" stroke="white" stroke-width="5" paint-order="stroke">Gemini</text><path d="M695 206 L722.5 206 L722.5 186 L750 186" fill="none" stroke="#64748B" stroke-width="1.7" marker-end="url(#arr)"/><text x="722.5" y="189" text-anchor="middle" font-family="Arial,sans-serif" font-size="11" fill="#475569" stroke="white" stroke-width="5" paint-order="stroke">GPT</text><path d="M695 206 L722.5 206 L722.5 296 L750 296" fill="none" stroke="#64748B" stroke-width="1.7" marker-end="url(#arr)"/><text x="722.5" y="244" text-anchor="middle" font-family="Arial,sans-serif" font-size="11" fill="#475569" stroke="white" stroke-width="5" paint-order="stroke">other</text><path d="M955 76 L982.5 76 L982.5 206 L1010 206" fill="none" stroke="#64748B" stroke-width="1.7" marker-end="url(#arr)"/><path d="M955 186 L982.5 186 L982.5 206 L1010 206" fill="none" stroke="#64748B" stroke-width="1.7" marker-end="url(#arr)"/><path d="M955 296 L982.5 296 L982.5 206 L1010 206" fill="none" stroke="#64748B" stroke-width="1.7" marker-end="url(#arr)"/><path d="M372.5 350 L372.5 350 L372.5 242 L372.5 242" fill="none" stroke="#64748B" stroke-width="1.7" marker-end="url(#arr)"/><text x="372.5" y="289" text-anchor="middle" font-family="Arial,sans-serif" font-size="11" fill="#475569" stroke="white" stroke-width="5" paint-order="stroke">model config</text><path d="M695 206 L687.5 206 L687.5 426 L680 426" fill="none" stroke="#64748B" stroke-width="1.7" marker-end="url(#arr)"/><text x="687.5" y="309" text-anchor="middle" font-family="Arial,sans-serif" font-size="11" fill="#475569" stroke="white" stroke-width="5" paint-order="stroke">new type</text><rect x="40" y="170" width="205" height="72" rx="13" fill="#EAF2FF" stroke="#4778C8" stroke-width="1.8"/><text x="142.5" y="206" text-anchor="middle" dominant-baseline="middle" font-family="Arial,'Noto Sans KR',sans-serif" font-size="14" font-weight="600" fill="#182B45">Client / Playground</text><rect x="270" y="170" width="205" height="72" rx="13" fill="#E7F2FF" stroke="#2764A5" stroke-width="1.8"/><text x="372.5" y="206" text-anchor="middle" dominant-baseline="middle" font-family="Arial,'Noto Sans KR',sans-serif" font-size="14" font-weight="600" fill="#182B45">AiService</text><rect x="490" y="170" width="205" height="72" rx="13" fill="#FFF2D9" stroke="#C48A2C" stroke-width="1.8"/><text x="592.5" y="206" text-anchor="middle" dominant-baseline="middle" font-family="Arial,'Noto Sans KR',sans-serif" font-size="14" font-weight="600" fill="#182B45">Provider + Service Type</text><rect x="750" y="40" width="205" height="72" rx="13" fill="#EDE9FE" stroke="#7C63C8" stroke-width="1.8"/><text x="852.5" y="76" text-anchor="middle" dominant-baseline="middle" font-family="Arial,'Noto Sans KR',sans-serif" font-size="14" font-weight="600" fill="#182B45">Gemini Service</text><rect x="750" y="150" width="205" height="72" rx="13" fill="#EDE9FE" stroke="#7C63C8" stroke-width="1.8"/><text x="852.5" y="186" text-anchor="middle" dominant-baseline="middle" font-family="Arial,'Noto Sans KR',sans-serif" font-size="14" font-weight="600" fill="#182B45">GPT Service</text><rect x="750" y="260" width="205" height="72" rx="13" fill="#EDE9FE" stroke="#7C63C8" stroke-width="1.8"/><text x="852.5" y="296" text-anchor="middle" dominant-baseline="middle" font-family="Arial,'Noto Sans KR',sans-serif" font-size="14" font-weight="600" fill="#182B45">Other Provider Service</text><rect x="1010" y="170" width="205" height="72" rx="13" fill="#DFF7EA" stroke="#328D60" stroke-width="1.8"/><text x="1112.5" y="206" text-anchor="middle" dominant-baseline="middle" font-family="Arial,'Noto Sans KR',sans-serif" font-size="14" font-weight="600" fill="#182B45">Common DTO / Flux</text><rect x="270" y="350" width="205" height="72" rx="13" fill="#F0F3F8" stroke="#758399" stroke-width="1.8"/><text x="372.5" y="386" text-anchor="middle" dominant-baseline="middle" font-family="Arial,'Noto Sans KR',sans-serif" font-size="14" font-weight="600" fill="#182B45">Model Version DB</text><rect x="680" y="390" width="205" height="72" rx="13" fill="#F0F3F8" stroke="#758399" stroke-width="1.8"/><text x="782.5" y="416" text-anchor="middle" dominant-baseline="middle" font-family="Arial,'Noto Sans KR',sans-serif" font-size="14" font-weight="600" fill="#182B45">New service type →</text><text x="782.5" y="436" text-anchor="middle" dominant-baseline="middle" font-family="Arial,'Noto Sans KR',sans-serif" font-size="14" font-weight="600" fill="#182B45">Backend extension</text></svg>